<svg width="20" height="21" viewBox="0 0 20 21" fill="none" xmlns="http://www.w3.org/2000/svg">
<path d="M7.35547 6.0334C7.64844 5.85703 8.01172 5.82832 8.30078 6.0498L13.9258 9.65918C14.2031 9.83965 14.375 10.1555 14.375 10.5C14.375 10.8445 14.2031 11.1604 13.9258 11.3408L8.30078 14.9502C8.01172 15.1348 7.64844 15.143 7.35547 14.9666C7.05859 14.7943 6.875 14.4662 6.875 14.1094V6.85371C6.875 6.53379 7.05859 6.20566 7.35547 6.0334ZM20 10.5C20 16.2996 15.5234 21 10 21C4.47656 21 0 16.2996 0 10.5C0 4.70039 4.47656 0 10 0C15.5234 0 20 4.70039 20 10.5ZM10 1.96875C5.51172 1.96875 1.875 5.7873 1.875 10.5C1.875 15.2127 5.51172 19.0312 10 19.0312C14.4883 19.0312 18.125 15.2127 18.125 10.5C18.125 5.7873 14.4883 1.96875 10 1.96875Z" fill="white"/>
</svg>
